<svg width="360" height="307" viewBox="0 0 360 307" fill="none" xmlns="http://www.w3.org/2000/svg">
<path d="M62.0783 300.491C93.3689 300.491 118.735 275.114 118.735 243.81C118.735 212.506 93.3689 187.129 62.0783 187.129C30.7877 187.129 5.42169 212.506 5.42169 243.81C5.42169 275.114 30.7877 300.491 62.0783 300.491Z" stroke="#434242" stroke-width="8"/>
<path d="M241.807 53.1555C254.683 53.1555 265.12 42.7133 265.12 29.8322C265.12 16.951 254.683 6.50883 241.807 6.50883C228.932 6.50883 218.494 16.951 218.494 29.8322C218.494 42.7133 228.932 53.1555 241.807 53.1555Z" stroke="#434242" stroke-width="8"/>
<path d="M297.922 300.491C329.212 300.491 354.578 275.114 354.578 243.81C354.578 212.506 329.212 187.129 297.922 187.129C266.631 187.129 241.265 212.506 241.265 243.81C241.265 275.114 266.631 300.491 297.922 300.491Z" stroke="#434242" stroke-width="8"/>
<path d="M67.7711 206.384C78.3434 209.096 98.6747 220.541 95.4217 244.624" stroke="#434242" stroke-width="8" stroke-linecap="round"/>
<path d="M261.325 251.946C261.867 260.625 269.946 279.609 297.922 286.118" stroke="#434242" stroke-width="8" stroke-linecap="round"/>
<path d="M140.964 243.81L165.017 199.931C167.139 196.058 166.425 191.236 163.1 188.331C141.124 169.135 98.3158 140.927 66.1446 151.059C22.2289 164.89 128.765 33.0866 207.651 42.8498" stroke="#434242" stroke-width="8" stroke-linecap="round"/>
<path d="M207.651 42.8498C198.516 64.625 185.416 108.653 203.469 110.566C221.524 112.477 262.574 117.205 280.843 119.329" stroke="#434242" stroke-width="8" stroke-linecap="round"/>
</svg>
