<svg width="360" height="213" viewBox="0 0 360 213" fill="none" xmlns="http://www.w3.org/2000/svg">
<path d="M180.46 206C159.929 206 110.6 180.679 90.6731 120.963M90.6731 120.963C89.5417 117.573 88.4946 114.059 87.541 110.419C65.3554 25.7408 51.7415 -12.8095 25.5221 14.8676C-0.697269 42.545 -2.71415 67.256 33.0854 91.639C61.725 111.144 83.4104 119.316 90.6731 120.963Z" stroke="#434242" stroke-width="8"/>
<path d="M78.6074 79.601C96.5912 76.526 135.584 66.422 147.685 50.606C159.787 34.791 176.426 32.689 180.46 32.689" stroke="#434242" stroke-width="8"/>
<path d="M180.46 206C200.99 206 250.319 180.679 270.246 120.963M270.246 120.963C271.377 117.573 272.425 114.059 273.378 110.419C295.564 25.7408 309.178 -12.8095 335.397 14.8676C361.616 42.545 363.633 67.256 327.834 91.639C299.194 111.144 277.509 119.316 270.246 120.963Z" stroke="#434242" stroke-width="8"/>
<path d="M282.312 79.601C264.328 76.526 225.335 66.422 213.234 50.606C201.133 34.791 184.493 32.689 180.46 32.689" stroke="#434242" stroke-width="8"/>
<path d="M163.542 111.028C166.627 111.028 169.129 108.526 169.129 105.441C169.129 102.356 166.627 99.8544 163.542 99.8544C160.457 99.8544 157.955 102.356 157.955 105.441C157.955 108.526 160.457 111.028 163.542 111.028Z" fill="#434242"/>
<path d="M163.542 111.028C166.627 111.028 169.129 108.526 169.129 105.441C169.129 102.356 166.627 99.8544 163.542 99.8544C160.457 99.8544 157.955 102.356 157.955 105.441C157.955 108.526 160.457 111.028 163.542 111.028Z" fill="#434242"/>
<path d="M163.542 111.028C166.627 111.028 169.129 108.526 169.129 105.441C169.129 102.356 166.627 99.8544 163.542 99.8544C160.457 99.8544 157.955 102.356 157.955 105.441C157.955 108.526 160.457 111.028 163.542 111.028Z" fill="#434242"/>
<path d="M164.579 125.163C167.664 125.163 170.166 122.661 170.166 119.576C170.166 116.491 167.664 113.989 164.579 113.989C161.494 113.989 158.992 116.491 158.992 119.576C158.992 122.661 161.494 125.163 164.579 125.163Z" fill="#434242"/>
<path d="M164.579 125.163C167.664 125.163 170.166 122.661 170.166 119.576C170.166 116.491 167.664 113.989 164.579 113.989C161.494 113.989 158.992 116.491 158.992 119.576C158.992 122.661 161.494 125.163 164.579 125.163Z" fill="#434242"/>
<path d="M164.579 125.163C167.664 125.163 170.166 122.661 170.166 119.576C170.166 116.491 167.664 113.989 164.579 113.989C161.494 113.989 158.992 116.491 158.992 119.576C158.992 122.661 161.494 125.163 164.579 125.163Z" fill="#434242"/>
<path d="M164.659 138.961C167.744 138.961 170.246 136.459 170.246 133.374C170.246 130.289 167.744 127.787 164.659 127.787C161.574 127.787 159.072 130.289 159.072 133.374C159.072 136.459 161.574 138.961 164.659 138.961Z" fill="#434242"/>
<path d="M164.659 138.961C167.744 138.961 170.246 136.459 170.246 133.374C170.246 130.289 167.744 127.787 164.659 127.787C161.574 127.787 159.072 130.289 159.072 133.374C159.072 136.459 161.574 138.961 164.659 138.961Z" fill="#434242"/>
<path d="M164.659 138.961C167.744 138.961 170.246 136.459 170.246 133.374C170.246 130.289 167.744 127.787 164.659 127.787C161.574 127.787 159.072 130.289 159.072 133.374C159.072 136.459 161.574 138.961 164.659 138.961Z" fill="#434242"/>
<path d="M164.659 152.369C167.744 152.369 170.246 149.867 170.246 146.782C170.246 143.697 167.744 141.195 164.659 141.195C161.574 141.195 159.072 143.697 159.072 146.782C159.072 149.867 161.574 152.369 164.659 152.369Z" fill="#434242"/>
<path d="M164.659 152.369C167.744 152.369 170.246 149.867 170.246 146.782C170.246 143.697 167.744 141.195 164.659 141.195C161.574 141.195 159.072 143.697 159.072 146.782C159.072 149.867 161.574 152.369 164.659 152.369Z" fill="#434242"/>
<path d="M164.659 152.369C167.744 152.369 170.246 149.867 170.246 146.782C170.246 143.697 167.744 141.195 164.659 141.195C161.574 141.195 159.072 143.697 159.072 146.782C159.072 149.867 161.574 152.369 164.659 152.369Z" fill="#434242"/>
<path d="M180.302 111.028C183.387 111.028 185.889 108.526 185.889 105.441C185.889 102.356 183.387 99.8544 180.302 99.8544C177.217 99.8544 174.715 102.356 174.715 105.441C174.715 108.526 177.217 111.028 180.302 111.028Z" fill="#434242"/>
<path d="M180.302 111.028C183.387 111.028 185.889 108.526 185.889 105.441C185.889 102.356 183.387 99.8544 180.302 99.8544C177.217 99.8544 174.715 102.356 174.715 105.441C174.715 108.526 177.217 111.028 180.302 111.028Z" fill="#434242"/>
<path d="M180.302 111.028C183.387 111.028 185.889 108.526 185.889 105.441C185.889 102.356 183.387 99.8544 180.302 99.8544C177.217 99.8544 174.715 102.356 174.715 105.441C174.715 108.526 177.217 111.028 180.302 111.028Z" fill="#434242"/>
<path d="M181.339 125.163C184.424 125.163 186.926 122.661 186.926 119.576C186.926 116.491 184.424 113.989 181.339 113.989C178.254 113.989 175.752 116.491 175.752 119.576C175.752 122.661 178.254 125.163 181.339 125.163Z" fill="#434242"/>
<path d="M181.339 125.163C184.424 125.163 186.926 122.661 186.926 119.576C186.926 116.491 184.424 113.989 181.339 113.989C178.254 113.989 175.752 116.491 175.752 119.576C175.752 122.661 178.254 125.163 181.339 125.163Z" fill="#434242"/>
<path d="M181.339 125.163C184.424 125.163 186.926 122.661 186.926 119.576C186.926 116.491 184.424 113.989 181.339 113.989C178.254 113.989 175.752 116.491 175.752 119.576C175.752 122.661 178.254 125.163 181.339 125.163Z" fill="#434242"/>
<path d="M181.419 138.961C184.504 138.961 187.006 136.459 187.006 133.374C187.006 130.289 184.504 127.787 181.419 127.787C178.334 127.787 175.832 130.289 175.832 133.374C175.832 136.459 178.334 138.961 181.419 138.961Z" fill="#434242"/>
<path d="M181.419 138.961C184.504 138.961 187.006 136.459 187.006 133.374C187.006 130.289 184.504 127.787 181.419 127.787C178.334 127.787 175.832 130.289 175.832 133.374C175.832 136.459 178.334 138.961 181.419 138.961Z" fill="#434242"/>
<path d="M181.419 138.961C184.504 138.961 187.006 136.459 187.006 133.374C187.006 130.289 184.504 127.787 181.419 127.787C178.334 127.787 175.832 130.289 175.832 133.374C175.832 136.459 178.334 138.961 181.419 138.961Z" fill="#434242"/>
<path d="M181.419 152.369C184.504 152.369 187.006 149.867 187.006 146.782C187.006 143.697 184.504 141.195 181.419 141.195C178.334 141.195 175.832 143.697 175.832 146.782C175.832 149.867 178.334 152.369 181.419 152.369Z" fill="#434242"/>
<path d="M181.419 152.369C184.504 152.369 187.006 149.867 187.006 146.782C187.006 143.697 184.504 141.195 181.419 141.195C178.334 141.195 175.832 143.697 175.832 146.782C175.832 149.867 178.334 152.369 181.419 152.369Z" fill="#434242"/>
<path d="M181.419 152.369C184.504 152.369 187.006 149.867 187.006 146.782C187.006 143.697 184.504 141.195 181.419 141.195C178.334 141.195 175.832 143.697 175.832 146.782C175.832 149.867 178.334 152.369 181.419 152.369Z" fill="#434242"/>
<path d="M197.061 111.028C200.146 111.028 202.648 108.526 202.648 105.441C202.648 102.356 200.146 99.8544 197.061 99.8544C193.976 99.8544 191.474 102.356 191.474 105.441C191.474 108.526 193.976 111.028 197.061 111.028Z" fill="#434242"/>
<path d="M197.061 111.028C200.146 111.028 202.648 108.526 202.648 105.441C202.648 102.356 200.146 99.8544 197.061 99.8544C193.976 99.8544 191.474 102.356 191.474 105.441C191.474 108.526 193.976 111.028 197.061 111.028Z" fill="#434242"/>
<path d="M197.061 111.028C200.146 111.028 202.648 108.526 202.648 105.441C202.648 102.356 200.146 99.8544 197.061 99.8544C193.976 99.8544 191.474 102.356 191.474 105.441C191.474 108.526 193.976 111.028 197.061 111.028Z" fill="#434242"/>
<path d="M198.098 125.163C201.183 125.163 203.685 122.661 203.685 119.576C203.685 116.491 201.183 113.989 198.098 113.989C195.013 113.989 192.511 116.491 192.511 119.576C192.511 122.661 195.013 125.163 198.098 125.163Z" fill="#434242"/>
<path d="M198.098 125.163C201.183 125.163 203.685 122.661 203.685 119.576C203.685 116.491 201.183 113.989 198.098 113.989C195.013 113.989 192.511 116.491 192.511 119.576C192.511 122.661 195.013 125.163 198.098 125.163Z" fill="#434242"/>
<path d="M198.098 125.163C201.183 125.163 203.685 122.661 203.685 119.576C203.685 116.491 201.183 113.989 198.098 113.989C195.013 113.989 192.511 116.491 192.511 119.576C192.511 122.661 195.013 125.163 198.098 125.163Z" fill="#434242"/>
<path d="M198.179 138.961C201.264 138.961 203.766 136.459 203.766 133.374C203.766 130.289 201.264 127.787 198.179 127.787C195.094 127.787 192.592 130.289 192.592 133.374C192.592 136.459 195.094 138.961 198.179 138.961Z" fill="#434242"/>
<path d="M198.179 138.961C201.264 138.961 203.766 136.459 203.766 133.374C203.766 130.289 201.264 127.787 198.179 127.787C195.094 127.787 192.592 130.289 192.592 133.374C192.592 136.459 195.094 138.961 198.179 138.961Z" fill="#434242"/>
<path d="M198.179 138.961C201.264 138.961 203.766 136.459 203.766 133.374C203.766 130.289 201.264 127.787 198.179 127.787C195.094 127.787 192.592 130.289 192.592 133.374C192.592 136.459 195.094 138.961 198.179 138.961Z" fill="#434242"/>
<path d="M198.179 152.369C201.264 152.369 203.766 149.867 203.766 146.782C203.766 143.697 201.264 141.195 198.179 141.195C195.094 141.195 192.592 143.697 192.592 146.782C192.592 149.867 195.094 152.369 198.179 152.369Z" fill="#434242"/>
<path d="M198.179 152.369C201.264 152.369 203.766 149.867 203.766 146.782C203.766 143.697 201.264 141.195 198.179 141.195C195.094 141.195 192.592 143.697 192.592 146.782C192.592 149.867 195.094 152.369 198.179 152.369Z" fill="#434242"/>
<path d="M198.179 152.369C201.264 152.369 203.766 149.867 203.766 146.782C203.766 143.697 201.264 141.195 198.179 141.195C195.094 141.195 192.592 143.697 192.592 146.782C192.592 149.867 195.094 152.369 198.179 152.369Z" fill="#434242"/>
</svg>
