<svg width="360" height="315" viewBox="0 0 360 315" fill="none" xmlns="http://www.w3.org/2000/svg">
<path d="M61.8919 298.818C93.0885 298.818 118.378 273.583 118.378 242.453C118.378 211.323 93.0885 186.087 61.8919 186.087C30.6953 186.087 5.40541 211.323 5.40541 242.453C5.40541 273.583 30.6953 298.818 61.8919 298.818Z" stroke="#434242" stroke-width="8"/>
<path d="M241.081 52.8596C253.918 52.8596 264.324 42.4755 264.324 29.6661C264.324 16.8567 253.918 6.4726 241.081 6.4726C228.244 6.4726 217.838 16.8567 217.838 29.6661C217.838 42.4755 228.244 52.8596 241.081 52.8596Z" stroke="#434242" stroke-width="8"/>
<path d="M297.027 298.818C328.224 298.818 353.514 273.583 353.514 242.453C353.514 211.323 328.224 186.087 297.027 186.087C265.83 186.087 240.541 211.323 240.541 242.453C240.541 273.583 265.83 298.818 297.027 298.818Z" stroke="#434242" stroke-width="8"/>
<path d="M67.5676 205.235C78.1081 207.932 98.3784 219.313 95.1351 243.262" stroke="#434242" stroke-width="8" stroke-linecap="round"/>
<path d="M260.541 250.544C261.081 259.174 269.135 278.052 297.027 284.525" stroke="#434242" stroke-width="8" stroke-linecap="round"/>
<path d="M140.541 242.453L164.521 198.818C166.637 194.967 165.925 190.172 162.61 187.283C140.701 168.194 98.0205 140.143 65.9459 150.218C22.1622 163.973 128.378 32.9024 207.027 42.6113" stroke="#434242" stroke-width="8" stroke-linecap="round"/>
<path d="M207.027 42.6113C197.92 64.2653 184.859 108.048 202.858 109.95C220.858 111.851 261.786 116.552 280 118.664" stroke="#434242" stroke-width="8" stroke-linecap="round"/>
<path d="M23.7838 308.897L314.965 18.339" stroke="#434242" stroke-width="8" stroke-linecap="round"/>
</svg>
